<svg height="480pt" viewBox="0 0 480 480.00003" width="480pt" xmlns="http://www.w3.org/2000/svg"><path d="m40 72h400c17.671875 0 32 14.328125 32 32v272c0 17.671875-14.328125 32-32 32h-400c-17.671875 0-32-14.328125-32-32v-272c0-17.671875 14.328125-32 32-32zm0 0" fill="#e0e0de"/><path d="m48 72h384v336h-384zm0 0" fill="#60d1e0"/><path d="m432 132-276 276h276zm0 0" fill="#5ac6d4"/><path d="m328 96h16v16h-16zm0 0" fill="#3fb7c7"/><path d="m360 96h16v16h-16zm0 0" fill="#3fb7c7"/><path d="m392 96h16v16h-16zm0 0" fill="#3fb7c7"/><path d="m319.199219 160.800781-79.199219 79.199219 79.199219 79.199219c43.746093-43.738281 43.746093-114.660157 0-158.398438zm0 0" fill="#7eb457"/><path d="m240 240-79.199219 79.199219c43.738281 43.746093 114.660157 43.746093 158.398438 0zm0 0" fill="#f35244"/><path d="m240 128c-61.855469 0-112 50.144531-112 112h112l79.199219-79.199219c-20.984375-21.035156-49.488281-32.839843-79.199219-32.800781zm0 0" fill="#ffb531"/><path d="m128 240c-.039062 29.710938 11.765625 58.214844 32.800781 79.199219l79.199219-79.199219zm0 0" fill="#348fd9"/><g fill="#3fb7c7"><path d="m368 176h40v16h-40zm0 0"/><path d="m72 144h48v16h-48zm0 0"/><path d="m72 176h40v16h-40zm0 0"/><path d="m72 312h40v16h-40zm0 0"/><path d="m72 344h56v16h-56zm0 0"/><path d="m352 144h56v16h-56zm0 0"/><path d="m368 296h40v16h-40zm0 0"/><path d="m352 328h56v16h-56zm0 0"/></g><path d="m232 104h-48l16 64-56-64h-40c-13.253906 0-24-10.746094-24-24v-48c0-13.253906 10.746094-24 24-24h128c13.253906 0 24 10.746094 24 24v48c0 13.253906-10.746094 24-24 24zm0 0" fill="#348fd9"/><path d="m104 32h16v16h-16zm0 0" fill="#2a71ad"/><path d="m136 32h96v16h-96zm0 0" fill="#2a71ad"/><path d="m104 64h128v16h-128zm0 0" fill="#2a71ad"/><path d="m386.6875 368.214844c-4.648438-.792969-9.410156.507812-13.011719 3.550781-3.601562 3.042969-5.679687 7.519531-5.675781 12.234375 0-8.835938-7.164062-16-16-16s-16 7.164062-16 16c0-8.835938-7.164062-16-16-16s-16 7.164062-16 16v-63.144531c.179688-8.039063-5.429688-15.046875-13.3125-16.640625-4.648438-.792969-9.410156.507812-13.011719 3.550781-3.601562 3.042969-5.679687 7.519531-5.675781 12.234375v112l-33.351562-20c-4.144532-2.496094-9.277344-2.695312-13.601563-.527344l-1.253906.632813c-4.777344 2.394531-7.792969 7.277343-7.792969 12.621093-.003906 4.5625 2.199219 8.847657 5.910156 11.496094l50.089844 35.777344h128v-87.144531c.179688-8.039063-5.429688-15.046875-13.3125-16.640625zm0 0" fill="#fec9a3"/><path d="m386.6875 368.214844c-1.152344-.179688-2.320312-.238282-3.488281-.175782-27.007813 48.367188-72 83.015626-105.886719 103.960938h122.6875v-87.144531c.179688-8.039063-5.429688-15.046875-13.3125-16.640625zm0 0" fill="#fec093"/><path d="m440 64h-160v16h144v336h16c22.082031-.027344 39.972656-17.917969 40-40v-272c-.027344-22.082031-17.917969-39.972656-40-40zm24 312c0 13.253906-10.746094 24-24 24v-320c13.253906 0 24 10.746094 24 24zm0 0"/><path d="m56 80v-16h-16c-22.082031.027344-39.9726562 17.917969-40 40v272c.0273438 22.082031 17.917969 39.972656 40 40h152v-16h-136zm-40 296v-272c0-13.253906 10.746094-24 24-24v320c-13.253906 0-24-10.746094-24-24zm0 0"/><path d="m104 32h16v16h-16zm0 0"/><path d="m136 32h96v16h-96zm0 0"/><path d="m104 64h128v16h-128zm0 0"/><path d="m328 96h16v16h-16zm0 0"/><path d="m360 96h16v16h-16zm0 0"/><path d="m392 96h16v16h-16zm0 0"/><path d="m72 144h48v16h-48zm0 0"/><path d="m72 176h40v16h-40zm0 0"/><path d="m72 312h40v16h-40zm0 0"/><path d="m72 344h56v16h-56zm0 0"/><path d="m352 144h56v16h-56zm0 0"/><path d="m368 176h40v16h-40zm0 0"/><path d="m368 296h40v16h-40zm0 0"/><path d="m352 328h56v16h-56zm0 0"/><path d="m388 360.320312c-6.980469-1.15625-14.117188.8125-19.511719 5.390626-.160156.128906-.3125.265624-.472656.410156-9.101563-8.171875-22.898437-8.171875-32 0-6.617187-5.675782-15.71875-7.480469-24-4.761719v-25.503906c4.535156-3.363281 8.828125-7.039063 12.855469-11l.039062-.054688c46.792969-46.851562 46.792969-122.75 0-169.601562l-.046875-.054688c-33.160156-33.265625-82.730469-44.027343-126.703125-27.511719l-3.914062-15.632812h37.753906c17.671875 0 32-14.328125 32-32v-48c0-17.671875-14.328125-32-32-32h-128c-17.671875 0-32 14.328125-32 32v48c0 17.671875 14.328125 32 32 32h36.367188l28 31.953125c-27.949219 20.761719-45.480469 52.660156-48.027344 87.386719-2.550782 34.722656 10.136718 68.839844 34.757812 93.460937l.046875.054688c28.476563 28.515625 69.378907 40.800781 108.855469 32.695312v60.320313l-21.230469-12.734375c-6.484375-3.917969-14.523437-4.21875-21.28125-.800781l-1.265625.625c-6.9375 3.472656-11.546875 10.328124-12.152344 18.0625-.605468 7.734374 2.882813 15.222656 9.195313 19.738281l50.085937 35.765625c1.359376.964844 2.984376 1.476562 4.648438 1.472656h128c4.417969 0 8-3.582031 8-8v-87.144531c.148438-11.941407-8.273438-22.273438-20-24.535157zm-68.992188-52.648437-67.695312-67.671875 67.671875-67.671875c33.371094 38.941406 33.371094 96.402344 0 135.34375zm-175.007812-211.671875h-40c-8.835938 0-16-7.164062-16-16v-48c0-8.835938 7.164062-16 16-16h128c8.835938 0 16 7.164062 16 16v48c0 8.835938-7.164062 16-16 16h-48c-2.460938 0-4.789062 1.136719-6.304688 3.074219-1.511718 1.941406-2.050781 4.472656-1.457031 6.863281l7.960938 31.863281-34.175781-39.066406c-1.519532-1.738281-3.714844-2.734375-6.023438-2.734375zm22.457031 70.464844c3.863281-3.792969 8.027344-7.269532 12.445313-10.402344l15.074218 17.226562c2.429688 2.777344 6.449219 3.53125 9.722657 1.820313 3.273437-1.707031 4.953125-5.4375 4.0625-9.019531l-5.699219-22.777344c35.757812-14.179688 76.429688-7.355469 105.601562 17.71875l-70.976562 70.96875h-100.382812c1.835937-24.761719 12.539062-48.03125 30.152343-65.535156zm54.230469 81.535156-59.671875 59.671875c-14.421875-16.726563-23.082031-37.648437-24.710937-59.671875zm19.3125 96c-24.828125.066406-48.851562-8.808594-67.671875-25.007812l67.671875-67.679688 44.992188 44.992188c-11.964844 1.488281-20.957032 11.640624-20.992188 23.695312v21.183594c-7.863281 1.871094-15.917969 2.816406-24 2.816406zm152 120h-117.441406l-48-34.28125c-1.75-1.242188-2.722656-3.316406-2.558594-5.460938.164062-2.144531 1.4375-4.046874 3.359375-5.011718l1.257813-.621094c1.867187-.949219 4.089843-.863281 5.878906.222656l33.351562 20c2.472656 1.5 5.5625 1.550782 8.078125.132813 2.519531-1.421875 4.078125-4.089844 4.074219-6.980469v-112c0-4.417969 3.582031-8 8-8s8 3.582031 8 8v64c0 4.417969 3.582031 8 8 8s8-3.582031 8-8 3.582031-8 8-8 8 3.582031 8 8 3.582031 8 8 8 8-3.582031 8-8 3.582031-8 8-8 8 3.582031 8 8 3.582031 8 8 8 8-3.582031 8-8c0-2.367188 1.046875-4.613281 2.859375-6.132812 1.816406-1.523438 4.210937-2.160157 6.539063-1.746094 3.996093.976562 6.753906 4.625 6.601562 8.734375zm0 0"/></svg>