<svg height="496pt" viewBox="0 0 496 496" width="496pt" xmlns="http://www.w3.org/2000/svg"><path d="m200 136h-128c-8.839844 0-16-7.160156-16-16v-96c0-8.839844 7.160156-16 16-16h128c8.839844 0 16 7.160156 16 16v56l32 32h-32v8c0 8.839844-7.160156 16-16 16zm0 0" fill="#ffdc64"/><path d="m336 152h-24c-8.839844 0-16-7.160156-16-16v-16c0-8.839844 7.160156-16 16-16h24zm0 0" fill="#64656a"/><path d="m448 152h24c8.839844 0 16-7.160156 16-16v-16c0-8.839844-7.160156-16-16-16h-24zm0 0" fill="#64656a"/><path d="m408 424h-384v-240c0-8.839844 7.160156-16 16-16h352c8.839844 0 16 7.160156 16 16zm0 0" fill="#b3b3b3"/><path d="m456 120c0 35.34375-28.65625 64-64 64s-64-28.65625-64-64v-16c0-35.34375 28.65625-64 64-64s64 28.65625 64 64zm0 0" fill="#fdbf64"/><path d="m380 41.160156c-29.609375 5.625-52 31.601563-52 62.839844v16c0 31.238281 22.390625 57.214844 52 62.839844 29.609375-5.625 52-31.601563 52-62.839844v-16c0-31.238281-22.390625-57.214844-52-62.839844zm0 0" fill="#fdd089"/><path d="m56 200h320v192h-320zm0 0" fill="#67cbf5"/><path d="m56 200h296v192h-296zm0 0" fill="#99ddf8"/><path d="m456 120h-16c-26.511719 0-48-21.488281-48-48 0 26.511719-21.488281 48-48 48h-16v-16c0-35.34375 28.65625-64 64-64s64 28.65625 64 64zm0 0" fill="#64656a"/><path d="m376 208h-23.03125c-10.863281 0-21.289062 4.320312-28.96875 12s-12 18.105469-12 28.96875v39.03125h160v-39.03125c0-10.863281-4.320312-21.289062-12-28.96875s-18.105469-12-28.96875-12h-23.03125" fill="#bfa735"/><path d="m436 220c-7.679688-7.679688-18.105469-12-28.96875-12h-54.0625c-10.863281 0-21.289062 4.320312-28.96875 12s-12 18.105469-12 28.96875v39.03125h136v-39.03125c0-10.863281-4.320312-21.289062-12-28.96875zm0 0" fill="#ffdf47"/><path d="m376 184v24l16 16 16-16v-24" fill="#fdd089"/><path d="m392 488h-352c-17.671875 0-32-14.328125-32-32v-32h416v32c0 17.671875-14.328125 32-32 32zm0 0" fill="#4d4d4d"/><path d="m400 456v-32h-392v32c0 17.671875 14.328125 32 32 32h328c17.671875 0 32-14.328125 32-32zm0 0" fill="#666"/><path d="m120 424v16c0 8.839844 7.160156 16 16 16h160c8.839844 0 16-7.160156 16-16v-16zm0 0" fill="#c7cad3"/><path d="m392 496h-352c-22.054688 0-40-17.945312-40-40v-32c0-4.414062 3.574219-8 8-8h416c4.425781 0 8 3.585938 8 8v32c0 22.054688-17.945312 40-40 40zm-376-64v24c0 13.230469 10.769531 24 24 24h352c13.230469 0 24-10.769531 24-24v-24zm0 0"/><path d="m296 464h-160c-13.230469 0-24-10.769531-24-24v-16h16v16c0 4.40625 3.585938 8 8 8h160c4.414062 0 8-3.59375 8-8v-16h16v16c0 13.230469-10.769531 24-24 24zm0 0"/><path d="m400 288h16v136h-16zm0 0"/><path d="m32 424h-16v-240c0-13.230469 10.769531-24 24-24h232v16h-232c-4.414062 0-8 3.59375-8 8zm0 0"/><path d="m376 400h-320c-4.425781 0-8-3.585938-8-8v-192c0-4.414062 3.574219-8 8-8h248v16h-240v176h304v-96h16v104c0 4.414062-3.574219 8-8 8zm0 0"/><path d="m456 128h-16c-20.34375 0-38.191406-10.902344-48-27.175781-9.808594 16.273437-27.65625 27.175781-48 27.175781h-16c-4.425781 0-8-3.585938-8-8v-16c0-39.695312 32.296875-72 72-72s72 32.304688 72 72v16c0 4.414062-3.574219 8-8 8zm-56-56c0 22.054688 17.945312 40 40 40h8v-8c0-30.878906-25.128906-56-56-56s-56 25.121094-56 56v8h8c22.054688 0 40-17.945312 40-40 0-4.414062 3.574219-8 8-8s8 3.585938 8 8zm0 0"/><path d="m392 192c-39.703125 0-72-32.304688-72-72h16c0 30.878906 25.128906 56 56 56s56-25.121094 56-56h16c0 39.695312-32.296875 72-72 72zm0 0"/><path d="m392 232c-2.046875 0-4.097656-.785156-5.65625-2.34375l-16-16c-1.503906-1.496094-2.34375-3.535156-2.34375-5.65625v-24h16v20.6875l8 8 8-8v-20.6875h16v24c0 2.121094-.839844 4.160156-2.34375 5.65625l-16 16c-1.558594 1.558594-3.609375 2.34375-5.65625 2.34375zm0 0"/><path d="m472 296h-160c-4.425781 0-8-3.585938-8-8v-39.03125c0-13.074219 5.097656-25.367188 14.34375-34.625 9.242188-9.246094 21.535156-14.34375 34.625-14.34375h23.03125v16h-23.03125c-8.816406 0-17.089844 3.433594-23.3125 9.65625-6.136719 6.144531-9.65625 14.640625-9.65625 23.3125v31.03125h144v-31.03125c0-8.671875-3.519531-17.167969-9.65625-23.3125-6.222656-6.222656-14.503906-9.65625-23.3125-9.65625h-23.03125v-16h23.03125c13.089844 0 25.382812 5.097656 34.625 14.34375 9.246094 9.257812 14.34375 21.550781 14.34375 34.625v39.03125c0 4.414062-3.574219 8-8 8zm0 0"/><path d="m472 160h-20.664062v-16h20.664062c4.414062 0 8-3.59375 8-8v-16c0-4.40625-3.585938-8-8-8h-16v-16h16c13.230469 0 24 10.769531 24 24v16c0 13.230469-10.769531 24-24 24zm0 0"/><path d="m332.664062 160h-20.664062c-13.230469 0-24-10.769531-24-24v-16c0-13.230469 10.769531-24 24-24h16v16h-16c-4.414062 0-8 3.59375-8 8v16c0 4.40625 3.585938 8 8 8h20.664062zm0 0"/><path d="m392 144h56v16h-56zm0 0"/><path d="m480 104h-16v-16c0-39.695312-32.296875-72-72-72s-72 32.304688-72 72v16h-16v-16c0-48.519531 39.480469-88 88-88s88 39.480469 88 88zm0 0"/><path d="m200 144h-128c-13.230469 0-24-10.769531-24-24v-96c0-13.230469 10.769531-24 24-24h128c13.230469 0 24 10.769531 24 24v52.6875l29.65625 29.65625c2.289062 2.289062 2.976562 5.726562 1.734375 8.71875-1.230469 2.984375-4.160156 4.9375-7.390625 4.9375h-24c0 13.230469-10.769531 24-24 24zm-128-128c-4.414062 0-8 3.59375-8 8v96c0 4.40625 3.585938 8 8 8h128c4.414062 0 8-3.59375 8-8v-8c0-4.414062 3.574219-8 8-8h12.6875l-18.34375-18.34375c-1.503906-1.496094-2.34375-3.535156-2.34375-5.65625v-56c0-4.40625-3.585938-8-8-8zm0 0"/><path d="m80 32h112v16h-112zm0 0"/><path d="m80 96h112v16h-112zm0 0"/><path d="m96 64h80v16h-80zm0 0"/></svg>